<?xml version="1.0" standalone="no"?><!DOCTYPE svg PUBLIC "-//W3C//DTD SVG 1.1//EN" "http://www.w3.org/Graphics/SVG/1.1/DTD/svg11.dtd"><svg t="1510152249224" class="icon" style="" viewBox="0 0 1024 1024" version="1.1" xmlns="http://www.w3.org/2000/svg" p-id="3863" xmlns:xlink="http://www.w3.org/1999/xlink" width="64" height="64"><defs><style type="text/css"></style></defs><path d="M712.652698 309.248c-55.296-53.248-122.88-81.92-200.704-81.92-79.872 0-147.456 26.624-200.704 81.92-55.296 53.248-81.92 122.88-81.92 204.8s28.672 149.504 81.92 202.752c55.296 53.248 122.88 81.92 200.704 81.92s145.408-26.624 200.704-81.92c55.296-53.248 81.92-122.88 81.92-202.752 2.048-83.968-26.624-151.552-81.92-204.8z m-51.2 376.832c-38.912 45.056-90.112 67.584-149.504 67.584s-110.592-22.528-149.504-67.584-59.392-102.4-59.392-172.032c0-71.68 20.48-129.024 59.392-174.08s90.112-67.584 149.504-67.584 110.592 22.528 149.504 67.584c38.912 45.056 59.392 102.4 59.392 174.08 0 69.632-20.48 126.976-59.392 172.032z" fill="#515151" p-id="3864"></path></svg>